<?xml version="1.0" encoding="UTF-8"?>
<svg id="Layer_2" data-name="Layer 2" xmlns="http://www.w3.org/2000/svg" viewBox="0 0 105.5 93.08">
  <defs>
    <style>
      .cls-1 {
        fill: #26b34b;
      }

      .cls-2 {
        fill: #507abd;
      }
    </style>
  </defs>
  <g id="Layer_1-2" data-name="Layer 1">
    <g>
      <path class="cls-1" d="M31.43,49.79c-5.54.67-10.82,3.41-14.59,8.01L1.12,30.58c-.76-1.31-1.12-2.74-1.12-4.15,0-2.88,1.5-5.68,4.17-7.22,3.98-2.3,9.07-.93,11.37,3.05l15.89,27.53Z"/>
      <path class="cls-2" d="M102.45,3.08c-2.03-2.04-4.67-3.08-7.25-3.08-2.37,0-4.69.88-6.45,2.65l-47.64,48.06-1.09,1.11c-2.57-.75-5.24-.99-7.85-.74-5.57.53-10.91,3.27-14.59,8-.14.16-.26.32-.38.48-6.88,9.37-4.88,22.54,4.49,29.43,9.36,6.89,22.54,4.88,29.42-4.49,4.09-5.56,5.05-12.47,3.18-18.6l1.08-1.09,47.5-47.92c3.67-3.7,3.48-9.88-.42-13.81ZM46.85,73.41c-.23,2.17-1.02,4.31-2.41,6.19-4.17,5.68-12.16,6.89-17.84,2.72-4.79-3.52-6.41-9.76-4.29-15.03.39-.98.91-1.93,1.57-2.82,2.15-2.92,5.31-4.66,8.64-5.09,1.52-.2,3.07-.13,4.58.23,1.62.38,3.19,1.09,4.62,2.14,3.8,2.79,5.6,7.29,5.13,11.66Z"/>
      <path class="cls-1" d="M44.62,75.65s0,.01,0,.01c-.34,1.03-.86,2.01-1.53,2.93-3.63,4.93-10.55,5.98-15.48,2.36-3.75-2.76-5.26-7.45-4.15-11.7.34-1.32.93-2.6,1.79-3.77,1.31-1.79,3.06-3.06,4.99-3.79,2.58-.98,5.5-.98,8.13.1.82.34,1.61.78,2.36,1.33,4,2.94,5.45,8.07,3.9,12.53Z"/>
    </g>
  </g>
</svg>