<?xml version="1.0" encoding="UTF-8"?>
<svg id="Layer_1" xmlns="http://www.w3.org/2000/svg" version="1.1" viewBox="0 0 48 48">
  <!-- Generator: Adobe Illustrator 29.4.0, SVG Export Plug-In . SVG Version: 2.1.0 Build 152)  -->
  <defs>
    <style>
      .st0 {
        fill: #096;
      }

      .st1 {
        fill: #369;
      }
    </style>
  </defs>
  <path class="st1" d="M46.25,6.68c-2.27-2.27-5.93-2.27-8.21,0l-17.51,17.51-.84.84c-.2-.01-.41-.03-.61-.03-.3,0-.58.01-.87.04-4.34.42-7.79,3.91-8.12,8.27-.01.23-.03.46-.03.7,0,4.99,4.04,9.02,9.02,9.02.24,0,.47-.01.7-.03.97-.08,1.89-.3,2.74-.66,2.23-.92,4.02-2.7,4.91-4.95.32-.78.54-1.64.62-2.51.03-.28.04-.57.04-.87,0-.32-.01-.65-.04-.96l.8-.8,17.39-17.39c1.14-1.12,1.69-2.62,1.69-4.1s-.55-2.97-1.69-4.1ZM19.09,40.03c-2.18,0-4.08-1.16-5.15-2.91-.54-.91-.87-1.97-.87-3.11,0-3.31,2.69-6.02,6.02-6.02.69,0,1.35.11,1.97.34,2.37.8,4.04,3.06,4.04,5.68,0,3.33-2.69,6.02-6.02,6.02Z"/>
  <path class="st0" d="M9.97,16.76c-1.12-1.12-2.62-1.69-4.1-1.69s-2.99.57-4.1,1.69c-2.28,2.27-2.28,5.93,0,8.21l7.52,7.53c.62-4.22,3.92-7.56,8.13-8.27l-7.45-7.46Z"/>
</svg>