<?xml version="1.0" encoding="UTF-8"?>
<svg id="Layer_2" data-name="Layer 2" xmlns="http://www.w3.org/2000/svg" viewBox="0 0 119.64 95.09">
  <defs>
    <style>
      .cls-1 {
        fill: #26b34b;
      }

      .cls-2 {
        fill: #507abd;
      }
    </style>
  </defs>
  <g id="Layer_1-2" data-name="Layer 1">
    <g>
      <path class="cls-2" d="M115.42,4.26c-5.68-5.68-14.83-5.68-20.5,0l-43.75,43.75-2.09,2.09c-.51-.03-1.01-.07-1.52-.07-.74,0-1.45.03-2.16.1-10.84,1.05-19.46,9.76-20.3,20.67-.03.57-.07,1.15-.07,1.76,0,12.47,10.1,22.53,22.53,22.53.61,0,1.18-.03,1.76-.07,2.43-.2,4.73-.74,6.86-1.66,5.57-2.3,10.03-6.76,12.26-12.36.81-1.96,1.35-4.09,1.55-6.28.07-.71.1-1.42.1-2.16,0-.81-.03-1.62-.1-2.4l1.99-1.99,43.44-43.44c2.84-2.8,4.22-6.55,4.22-10.24s-1.39-7.43-4.22-10.24ZM47.55,87.59c-5.44,0-10.2-2.91-12.87-7.26-1.35-2.26-2.16-4.93-2.16-7.77,0-8.28,6.72-15.03,15.03-15.03,1.72,0,3.38.27,4.93.84,5.91,1.99,10.1,7.63,10.1,14.19,0,8.31-6.72,15.03-15.03,15.03Z"/>
      <path class="cls-1" d="M24.75,29.46c-2.8-2.8-6.55-4.22-10.24-4.22s-7.47,1.42-10.24,4.22c-5.71,5.68-5.71,14.83,0,20.5l18.78,18.82c1.55-10.54,9.8-18.88,20.3-20.67l-18.61-18.65Z"/>
    </g>
  </g>
</svg>